<svg viewBox="0 0 44 44" xmlns="http://www.w3.org/2000/svg">
  <rect width="44" height="44" rx="8" fill="#1951A0"/>
  <svg x="6" y="6" width="32" height="32" viewBox="0 0 168 176" fill="none">
    <path d="M167.701 117.179C161.987 83.6731 119.483 70.9796 119.483 70.9796C119.483 70.9796 147.681 65.0139 148.945 39.3199C149.095 36.2593 147.409 33.3998 144.629 32.1104C120.769 21.0441 107.081 36.8409 107.081 36.8409C107.081 36.8409 115.377 14.4881 104.488 2.44813C102.708 0.480145 99.9804-0.3702 97.3723 0.149701C76.5705 4.29422 66.716 30.5874 66.716 30.5874C66.716 30.5874 54.6599 13.6554 33.9347 18.5254C31.5355 19.0894 29.5343 20.7504 28.5575 23.0092C23.3852 34.9977 28.8677 47.2066 40.1003 57.7162C41.4618 58.991 43.2408 60.445 44.7466 61.6316C46.013 62.6289 45.6281 64.635 44.078 65.0962C42.1731 65.6631 39.8736 66.3475 38.0128 66.9026C26.0282 70.4773 7.31171 79.0733 0.480605 98.4256C-0.148067 100.206 0.102731 102.179 1.19889 103.713C13.4092 120.793 40.9705 122.642 63.952 101.005C63.952 101.005 33.7208 154.096 81.7728 174.647C83.8736 175.546 86.2793 175.46 88.3029 174.396C125.518 154.813 105.439 108.345 105.439 108.345C105.439 108.345 130.307 140.147 163.367 125.421C166.538 124.008 168.282 120.592 167.7 117.177L167.701 117.179Z" fill="#FEC700"/>
  </svg>
</svg>
